<!DOCTYPE svg PUBLIC "-//W3C//DTD SVG 20010904//EN" "http://www.w3.org/TR/2001/REC-SVG-20010904/DTD/svg10.dtd">
<svg version="1.0" xmlns="http://www.w3.org/2000/svg" width="34px" height="38px" viewBox="0 0 340 380" preserveAspectRatio="xMidYMid meet">
<g id="layer101" fill="#000000" stroke="none">
 <path d="M0 190 l0 -190 105 0 105 0 0 190 0 190 -105 0 -105 0 0 -190z m90 160 c0 -5 -16 -10 -35 -10 -19 0 -35 5 -35 10 0 6 16 10 35 10 19 0 35 -4 35 -10z m100 0 c0 -5 -16 -10 -35 -10 -19 0 -35 5 -35 10 0 6 16 10 35 10 19 0 35 -4 35 -10z m0 -165 l0 -125 -85 0 -85 0 0 125 0 125 85 0 85 0 0 -125z m0 -155 c0 -6 -35 -10 -85 -10 -50 0 -85 4 -85 10 0 6 35 10 85 10 50 0 85 -4 85 -10z"/>
 <path d="M265 299 c-4 -6 2 -20 13 -32 28 -30 44 -75 36 -101 -3 -11 -18 -33 -32 -49 -20 -20 -23 -30 -14 -39 8 -8 15 -8 27 2 51 42 60 134 20 193 -27 38 -39 45 -50 26z"/>
 <path d="M256 262 c-4 -6 0 -25 9 -42 15 -29 15 -34 0 -56 -21 -32 -10 -51 16 -28 25 22 25 84 1 115 -13 15 -21 18 -26 11z"/>
 </g>

</svg>