<!DOCTYPE svg PUBLIC "-//W3C//DTD SVG 20010904//EN" "http://www.w3.org/TR/2001/REC-SVG-20010904/DTD/svg10.dtd">
<svg version="1.0" xmlns="http://www.w3.org/2000/svg" width="258px" height="258px" viewBox="0 0 2580 2580" preserveAspectRatio="xMidYMid meet">
<g id="layer101" fill="#666666" stroke="none">
 <path d="M249 2566 c-99 -26 -165 -82 -217 -180 l-27 -51 0 -1040 c0 -1001 1 -1042 19 -1090 24 -62 95 -139 161 -173 l50 -27 1055 0 1055 0 50 27 c62 32 129 103 158 166 l22 47 0 1040 0 1040 -33 67 c-36 75 -88 123 -168 160 l-49 23 -1015 2 c-783 1 -1025 -1 -1061 -11z m1980 -310 c15 -8 32 -26 39 -41 9 -19 12 -171 12 -575 l0 -550 -106 0 -106 0 6 33 c19 94 26 179 20 242 -26 279 -184 513 -429 635 -125 62 -217 83 -370 84 -159 0 -228 -15 -374 -86 -91 -44 -116 -61 -196 -141 -125 -125 -188 -236 -219 -389 -24 -117 -20 -261 10 -360 5 -16 -5 -18 -105 -18 l-111 0 0 561 0 561 29 29 29 29 922 0 c778 0 925 -2 949 -14z m-774 -508 c206 -69 345 -255 345 -462 -1 -137 -40 -233 -137 -337 -298 -317 -835 -136 -879 296 -14 138 47 288 161 393 137 127 333 170 510 110z m764 -973 c51 -26 61 -65 61 -237 0 -169 -5 -189 -59 -225 -32 -22 -44 -23 -193 -23 -255 0 -258 3 -258 253 0 163 1 176 21 201 12 15 31 32 43 36 11 5 97 9 189 9 128 1 175 -2 196 -14z"/>
 </g>

</svg>