<!DOCTYPE svg PUBLIC "-//W3C//DTD SVG 20010904//EN" "http://www.w3.org/TR/2001/REC-SVG-20010904/DTD/svg10.dtd">
<svg version="1.0" xmlns="http://www.w3.org/2000/svg" width="396px" height="555px" viewBox="0 0 3960 5550" preserveAspectRatio="xMidYMid meet">
<g id="layer101" fill="#cccccc" stroke="none">
 <path d="M2656 5543 c-2 -3 -98 -15 -116 -15 -8 0 -32 -4 -53 -10 -21 -5 -55 -11 -75 -14 -48 -6 -114 -24 -127 -34 -5 -4 -30 -13 -55 -19 -25 -7 -58 -18 -75 -25 -16 -8 -57 -26 -90 -41 -33 -15 -71 -33 -85 -41 -14 -8 -42 -22 -62 -32 -21 -9 -38 -20 -38 -24 0 -5 -5 -8 -11 -8 -7 0 -34 -16 -60 -35 -27 -19 -51 -35 -54 -35 -3 0 -18 -11 -33 -25 -15 -14 -30 -25 -34 -25 -7 0 -21 -11 -138 -112 -309 -266 -595 -632 -856 -1096 -11 -21 -35 -64 -53 -97 -19 -33 -38 -66 -44 -72 -5 -7 -7 -13 -3 -13 3 0 -3 -15 -13 -32 -23 -40 -76 -146 -125 -253 -21 -44 -45 -93 -54 -110 -9 -16 -15 -31 -14 -33 2 -2 -11 -34 -45 -109 -9 -21 -17 -40 -18 -43 -3 -11 -18 -47 -31 -77 -8 -17 -14 -35 -14 -40 0 -6 -7 -24 -16 -42 -9 -17 -17 -37 -18 -44 -3 -11 -6 -22 -23 -64 -3 -10 -7 -21 -8 -25 -2 -5 -4 -10 -5 -13 -1 -3 -3 -8 -4 -12 -1 -5 -10 -35 -21 -68 -10 -33 -19 -63 -21 -67 -1 -5 -2 -9 -4 -10 -1 -2 -3 -10 -5 -18 -2 -8 -22 -84 -44 -167 -22 -84 -42 -167 -44 -185 -3 -18 -12 -73 -21 -123 -8 -49 -18 -106 -21 -125 -11 -72 -19 -209 -19 -340 0 -141 7 -230 28 -375 9 -66 73 -298 90 -330 9 -16 16 -35 16 -42 0 -7 11 -33 25 -59 14 -26 25 -53 25 -60 0 -8 5 -14 10 -14 6 0 10 -8 10 -17 0 -10 9 -29 20 -43 11 -14 20 -31 20 -37 0 -7 5 -13 10 -13 6 0 10 -7 10 -15 0 -8 4 -15 8 -15 5 0 17 -18 28 -39 10 -22 22 -37 26 -35 5 3 8 1 8 -5 0 -13 112 -146 169 -200 54 -52 208 -173 254 -201 35 -21 199 -104 207 -105 3 0 59 -27 125 -60 66 -33 122 -60 125 -61 3 0 12 -4 20 -7 8 -4 42 -13 75 -20 208 -47 352 67 489 386 9 21 16 42 16 48 0 6 6 25 14 42 20 44 77 223 102 320 1 4 2 8 4 10 1 1 3 9 5 17 2 8 11 40 19 70 8 30 17 71 20 90 3 19 9 55 14 80 9 47 8 194 -2 268 -3 24 -12 53 -21 65 -8 12 -15 28 -15 36 0 21 -68 111 -112 150 -49 42 -108 83 -108 74 0 -3 -8 1 -17 9 -16 13 -56 33 -218 109 -27 13 -54 24 -60 25 -5 1 -23 8 -40 15 -16 7 -32 13 -35 14 -24 5 -93 45 -127 72 -147 117 -177 340 -88 658 14 50 27 99 30 110 5 21 21 67 36 100 5 11 19 49 32 85 50 134 239 519 304 618 31 47 43 67 50 82 3 8 19 31 35 51 15 20 28 40 28 44 0 16 137 179 200 238 86 80 151 124 204 138 23 6 46 14 51 19 21 16 122 14 190 -4 28 -7 91 -39 107 -53 10 -9 18 -13 18 -8 0 4 7 1 16 -6 37 -31 314 -169 389 -194 86 -29 169 -30 265 -5 47 13 87 26 90 29 3 3 18 13 35 21 45 23 144 107 205 174 19 22 50 55 67 75 18 20 33 39 33 42 0 3 8 15 18 27 9 12 32 43 50 69 18 26 62 90 98 142 82 117 167 263 200 344 64 157 64 303 -1 385 -43 55 -139 132 -164 132 -5 0 -14 7 -21 15 -7 8 -16 13 -20 10 -5 -3 -12 0 -15 5 -7 11 -59 35 -61 28 -1 -2 -11 6 -23 16 -12 11 -21 15 -21 11 0 -4 -9 0 -20 10 -11 10 -20 15 -20 12 0 -4 -15 2 -32 13 -37 22 -158 81 -173 85 -5 1 -23 8 -40 14 -16 7 -37 15 -45 17 -8 2 -45 12 -81 23 -37 10 -84 22 -105 25 -22 4 -50 8 -64 11 -72 13 -335 27 -344 18z"/>
 </g>

</svg>